<?xml version="1.0" encoding="UTF-8"?>
<svg width="119px" height="43px" viewBox="0 0 119 43" version="1.1" xmlns="http://www.w3.org/2000/svg" xmlns:xlink="http://www.w3.org/1999/xlink">
    <!-- Generator: Sketch 51.2 (57519) - http://www.bohemiancoding.com/sketch -->
    <title>mc_logo</title>
    <desc>Created with Sketch.</desc>
    <defs></defs>
    <g id="Page-1" stroke="none" stroke-width="1" fill="none" fill-rule="evenodd">
        <g id="mc_logo" fill="#FFFFFF" fill-rule="nonzero">
            <path d="M13,15.84 C13.3373209,17.2030532 13.5350066,18.5969052 13.59,20 C15.268275,17.4715476 17.2873032,15.1866806 19.59,13.21 C21.9296003,11.2177353 24.5471192,9.57715394 27.36,8.34 C29.2606854,7.47342665 31.2186221,6.73836508 33.22,6.14 C34.94,5.6 36.12,5.29 37.75,4.9 C39.38,4.51 40.75,4.27 40.75,4.65 C40.75,5.03 39,5.54 38.75,5.65 C37.54,6.19 36.39,6.65 33.84,7.78 C31.032847,9.16740776 28.4231916,10.9228719 26.08,13 C23.628198,15.1241242 21.4362987,17.5308498 19.55,20.17 C18.4734165,21.4685133 17.4717892,22.8273877 16.55,24.24 C15.55,25.87 14.61,27.59 14.29,28.13 C13.72,29.13 12.61,31.57 12.61,31.57 C13.5413957,31.8198422 14.5093823,31.9044565 15.47,31.82 C17.7108618,31.7714388 19.9066895,31.1813101 21.87,30.1 C24.5684887,28.6586588 26.9840351,26.7411282 29,24.44 C31.0057676,22.360008 32.8166754,20.1005575 34.41,17.69 C35.7840642,15.6828324 37.0202413,13.5846725 38.11,11.41 C39.11,9.41 39.51,7.27 39.79,7.21 C40.07,7.15 40.21,9.21 39.92,11 C39.6362573,13.9923962 38.8058403,16.9073293 37.47,19.6 C36.3829542,21.975785 34.8868692,24.1420618 33.05,26 C31.0734857,28.0852212 28.8504665,29.9220664 26.43,31.47 C24.7222829,32.6348086 22.8235242,33.4911115 20.82,34 C18.7282888,34.5153269 16.5651777,34.6775602 14.42,34.48 C13.4729117,34.4144681 12.5348385,34.2536556 11.62,34 C11.0015556,35.4102605 10.5096219,36.8726756 10.15,38.37 C9.91808643,39.2851462 9.58258638,40.1708663 9.15,41.01 C8.76,41.71 8.22,42.22 7.75,42.01 C6.81401605,41.6043792 6.19244193,40.6992119 6.15,39.68 C5.94678761,38.1209596 6.0076389,36.538826 6.33,35 C6.62,33.5 7.19,31.62 7.19,31.62 C5.64058151,30.0590743 4.34189836,28.2679035 3.34,26.31 C1.72446447,23.3690791 0.858923082,20.0752132 0.82,16.72 C0.828963098,13.0395996 1.68073966,9.4101421 3.31,6.11 C3.90775835,4.9052846 4.57556866,3.73661655 5.31,2.61 C5.72573959,1.90668679 6.19725321,1.23787314 6.72,0.61 C8.01996962,3.00796263 9.18836678,5.47494977 10.22,8 C11.3457681,10.5384059 12.2751611,13.1594279 13,15.84 Z M17.36,5.84 C16.8101357,6.23947554 16.3158072,6.71026457 15.89,7.24 C15.3841125,7.72374792 15.1679317,8.43676548 15.32,9.12 C15.3745776,9.40249029 15.4618306,9.67767297 15.58,9.94 C15.9090057,10.5612032 16.5570849,10.9469646 17.26,10.94 C18.0949878,10.7779564 18.8219431,10.2690877 19.26,9.54 C20.02,8.54 20.18,8.14 20.18,7.66 C20.1777265,7.1548979 19.9722968,6.67195789 19.61,6.32 C19.0658451,5.62583328 18.1073084,5.41236005 17.32,5.81 L17.36,5.84 Z M6.65,2 C6.65,2 6.24,3 5.76,4.11 C4.88171617,6.02308068 4.1268383,7.99043937 3.5,10 C2.73,12.77 2.19,16.85 2.96,19.87 C3.24062253,20.9915719 3.61184202,22.0885087 4.07,23.15 C5.03616502,25.3775617 6.46829451,27.3723135 8.27,29 C8.8044228,28.1731306 9.14617722,27.2367235 9.27,26.26 C9.43,25.26 9.43,24.99 9.5,24.16 C9.59,22.89 9.59,21.52 9.62,19.96 C9.65994796,17.4987344 9.45223588,15.0396915 9,12.62 C8.71,11 8.2,8.07 7.82,6.41 C7.44,4.75 6.65,2 6.65,2 Z" id="Shape"></path>
            <path d="M74.77,38.45 C73.2234567,39.9520558 71.1558796,40.7977199 69,40.81 C67.1303623,40.7930474 65.3191426,40.1564828 63.85,39 C62.0853448,37.5929399 61.0106909,35.4952023 60.8997022,33.2409824 C60.7887134,30.9867625 61.6521007,28.7936035 63.27,27.22 C66.4565242,24.0707556 71.5834758,24.0707556 74.77,27.22 C76.2798946,28.7001562 77.1306897,30.7256102 77.1306897,32.84 C77.1306897,34.9543898 76.2798946,36.9798438 74.77,38.46 L74.77,38.45 Z M73,32.81 C73,30.33 71.34,28.35 69,28.35 C66.66,28.35 65,30.35 65,32.81 C65,35.27 66.56,37.27 69,37.27 C71.44,37.27 73,35.3 73,32.81 Z" id="Shape"></path>
            <path d="M78.69,25.17 L83.27,25.17 C85.38,25.17 87,25.17 88.27,26.17 C89.4211749,27.0606595 90.0666254,28.4560265 90,29.91 C90.2038045,32.0314201 88.7085338,33.9400892 86.6,34.25 L90.74,40.36 L86,40.36 L82.5,34.36 L82.5,40.36 L78.62,40.36 L78.62,25.17 L78.69,25.17 Z M83.34,32.4 C85.09,32.4 85.92,31.83 85.92,30.49 C85.92,28.9 85.12,28.39 83.4,28.39 L82.57,28.39 L82.57,32.39 L83.34,32.4 Z" id="Shape"></path>
            <path d="M92.22,40.39 L92.22,25.17 L96.84,25.17 C98.75,25.17 100.28,25.17 101.46,25.97 C102.884299,26.9640503 103.690685,28.6260375 103.59,30.36 C103.749368,32.081492 102.94051,33.7492804 101.49,34.69 C100.363302,35.2388538 99.1083929,35.4704761 97.86,35.36 L96.11,35.36 L96.11,40.36 L92.22,40.39 Z M96.9,32 C98.69,32 99.58,31.69 99.58,30.22 C99.58,28.75 98.58,28.44 96.94,28.44 L96.11,28.44 L96.11,32 L96.9,32 Z" id="Shape"></path>
            <path d="M109.58,37.56 C110.73,37.56 111.46,36.89 111.46,36 C111.46,34.79 110.63,34.44 108.91,34 C106.17,33.27 104.83,32.18 104.83,29.8 C104.83,26.96 106.9,24.86 110.09,24.86 C111.703169,24.8305417 113.284645,25.3098827 114.61,26.23 L113.31,29.23 C112.504852,28.493675 111.469474,28.0590283 110.38,28 C109.38,28 108.69,28.54 108.69,29.28 C108.69,30.36 109.74,30.58 111.11,30.96 C113.82,31.7 115.31,32.68 115.31,35.49 C115.31,38.67 113.05,40.84 109.48,40.84 C107.445518,40.8787022 105.486265,40.0710988 104.07,38.61 L106,35.49 C106.851731,36.6498529 108.149878,37.4004575 109.58,37.56 Z" id="Shape"></path>
            <path d="M53.37,37.27 C50.98,37.27 49.45,35.62 49.37,32.81 C49.29,30 50.99,28.35 53.37,28.35 C54.6853603,28.3328896 55.9155183,28.9990675 56.62,30.11 L60.22,28.39 C58.197325,25.4597477 54.5196972,24.1624912 51.1061829,25.1751671 C47.6926686,26.187843 45.317463,29.2807735 45.22,32.84 C45.3133426,36.4010279 47.6870941,39.497775 51.1016076,40.5130237 C54.5161212,41.5282724 58.196203,40.2315318 60.22,37.3 L56.62,35.58 C55.8937536,36.6584672 54.6699648,37.2948374 53.37,37.27 Z" id="Shape"></path>
            <path d="M58.21,21.54 L58.21,11.54 C58.0345363,12.5098608 57.8007791,13.4682649 57.51,14.41 L55.44,21.54 L52.67,21.54 L50.6,14.44 C50.3054069,13.499322 50.0715914,12.5406785 49.9,11.57 L49.9,21.57 L46,21.57 L46,6.32 L51.26,6.32 L53.55,14.18 C53.7635319,14.8546416 53.9141742,15.5475961 54,16.25 C54.0758971,15.543161 54.2370691,14.8481066 54.48,14.18 L56.8,6.35 L62.1,6.35 L62.1,21.57 L58.21,21.57 L58.21,21.54 Z" id="Shape"></path>
            <polygon id="Shape" points="64.45 6.32 73.78 6.32 73.78 9.66 68.5 9.66 68.5 12.3 73.5 12.3 73.5 15.55 68.5 15.55 68.5 18.13 73.79 18.13 73.79 21.54 64.48 21.54 64.48 6.32"></polygon>
            <path d="M75.89,6.32 L80.47,6.32 C82.57,6.32 84.2,6.32 85.47,7.32 C86.6043144,8.21174002 87.2345754,9.59906004 87.16,11.04 C87.3576991,13.161094 85.858337,15.0649761 83.75,15.37 L87.89,21.49 L83.21,21.49 L79.71,15.49 L79.71,21.49 L75.82,21.49 L75.82,6.32 L75.89,6.32 Z M80.57,13.55 C82.32,13.55 83.15,12.97 83.15,11.63 C83.15,10.04 82.35,9.53 80.63,9.53 L79.8,9.53 L79.8,13.53 L80.57,13.55 Z" id="Shape"></path>
            <path d="M96.55,18.39 C94.17,18.39 92.64,16.73 92.55,13.93 C92.46,11.13 94.18,9.47 96.55,9.47 C97.8638685,9.44878258 99.0944833,10.1114213 99.8,11.22 L103.4,9.5 C101.369312,6.5816448 97.6957946,5.29485368 94.2878987,6.30813472 C90.8800028,7.32141577 88.5063137,10.4062428 88.4,13.96 C88.5063137,17.5137572 90.8800028,20.5985842 94.2878987,21.6118653 C97.6957946,22.6251463 101.369312,21.3383552 103.4,18.42 L99.8,16.7 C99.0614987,17.7646455 97.8456878,18.3968671 96.55,18.39 Z" id="Shape"></path>
            <polygon id="Shape" points="104.32 21.83 109 21.83 118.17 6.28 113.45 6.28 110.72 10.9 107.44 6.28 102.88 6.28 108.61 14.5"></polygon>
        </g>
    </g>
</svg>