<?xml version="1.0" encoding="UTF-8"?>
<svg width="169px" height="84px" viewBox="0 0 169 84" version="1.1" xmlns="http://www.w3.org/2000/svg" xmlns:xlink="http://www.w3.org/1999/xlink">
    <!-- Generator: Sketch 51.2 (57519) - http://www.bohemiancoding.com/sketch -->
    <title>mc_logo_w_bg</title>
    <desc>Created with Sketch.</desc>
    <defs></defs>
    <g id="Page-1" stroke="none" stroke-width="1" fill="none" fill-rule="evenodd">
        <g id="mc_logo_w_bg" fill-rule="nonzero">
            <rect id="Rectangle-path" fill="#C8202F" x="0" y="0" width="169" height="83.89"></rect>
            <path d="M38,34.84 C38.3373209,36.2030532 38.5350066,37.5969052 38.59,39 C40.268275,36.4715476 42.2873032,34.1866806 44.59,32.21 C46.9296003,30.2177353 49.5471192,28.5771539 52.36,27.34 C54.2606854,26.4734266 56.2186221,25.7383651 58.22,25.14 C59.94,24.6 61.12,24.29 62.75,23.9 C64.38,23.51 65.75,23.27 65.75,23.65 C65.75,24.03 64,24.54 63.75,24.65 C62.54,25.19 61.39,25.65 58.84,26.78 C56.032847,28.1674078 53.4231916,29.9228719 51.08,32 C48.628198,34.1241242 46.4362987,36.5308498 44.55,39.17 C43.4734165,40.4685133 42.4717892,41.8273877 41.55,43.24 C40.55,44.87 39.61,46.59 39.29,47.13 C38.72,48.13 37.61,50.57 37.61,50.57 C38.5413957,50.8198422 39.5093823,50.9044565 40.47,50.82 C42.7108618,50.7714388 44.9066895,50.1813101 46.87,49.1 C49.5684887,47.6586588 51.9840351,45.7411282 54,43.44 C56.0057676,41.360008 57.8166754,39.1005575 59.41,36.69 C60.7840642,34.6828324 62.0202413,32.5846725 63.11,30.41 C64.11,28.41 64.51,26.27 64.79,26.21 C65.07,26.15 65.21,28.21 64.92,30 C64.6362573,32.9923962 63.8058403,35.9073293 62.47,38.6 C61.3829542,40.975785 59.8868692,43.1420618 58.05,45 C56.0734857,47.0852212 53.8504665,48.9220664 51.43,50.47 C49.7222829,51.6348086 47.8235242,52.4911115 45.82,53 C43.7282888,53.5153269 41.5651777,53.6775602 39.42,53.48 C38.4729117,53.4144681 37.5348385,53.2536556 36.62,53 C36.0015556,54.4102605 35.5096219,55.8726756 35.15,57.37 C34.9180864,58.2851462 34.5825864,59.1708663 34.15,60.01 C33.76,60.71 33.22,61.22 32.75,61.01 C31.814016,60.6043792 31.1924419,59.6992119 31.15,58.68 C30.9467876,57.1209596 31.0076389,55.538826 31.33,54 C31.62,52.5 32.19,50.62 32.19,50.62 C30.6405815,49.0590743 29.3418984,47.2679035 28.34,45.31 C26.7244645,42.3690791 25.8589231,39.0752132 25.82,35.72 C25.8289631,32.0395996 26.6807397,28.4101421 28.31,25.11 C28.9077584,23.9052846 29.5755687,22.7366166 30.31,21.61 C30.7257396,20.9066868 31.1972532,20.2378731 31.72,19.61 C33.0199696,22.0079626 34.1883668,24.4749498 35.22,27 C36.3457681,29.5384059 37.2751611,32.1594279 38,34.84 Z M42.36,24.84 C41.8101357,25.2394755 41.3158072,25.7102646 40.89,26.24 C40.3841125,26.7237479 40.1679317,27.4367655 40.32,28.12 C40.3745776,28.4024903 40.4618306,28.677673 40.58,28.94 C40.9090057,29.5612032 41.5570849,29.9469646 42.26,29.94 C43.0949878,29.7779564 43.8219431,29.2690877 44.26,28.54 C45.02,27.54 45.18,27.14 45.18,26.66 C45.1777265,26.1548979 44.9722968,25.6719579 44.61,25.32 C44.0658451,24.6258333 43.1073084,24.41236 42.32,24.81 L42.36,24.84 Z M31.65,21 C31.65,21 31.24,22 30.76,23.11 C29.8817162,25.0230807 29.1268383,26.9904394 28.5,29 C27.73,31.77 27.19,35.85 27.96,38.87 C28.2406225,39.9915719 28.611842,41.0885087 29.07,42.15 C30.036165,44.3775617 31.4682945,46.3723135 33.27,48 C33.8044228,47.1731306 34.1461772,46.2367235 34.27,45.26 C34.43,44.26 34.43,43.99 34.5,43.16 C34.59,41.89 34.59,40.52 34.62,38.96 C34.659948,36.4987344 34.4522359,34.0396915 34,31.62 C33.71,30 33.2,27.07 32.82,25.41 C32.44,23.75 31.65,21 31.65,21 Z" id="Shape" fill="#FFFFFF"></path>
            <path d="M99.77,57.45 C98.2234567,58.9520558 96.1558796,59.7977199 94,59.81 C92.1303623,59.7930474 90.3191426,59.1564828 88.85,58 C87.0853448,56.5929399 86.0106909,54.4952023 85.8997022,52.2409824 C85.7887134,49.9867625 86.6521007,47.7936035 88.27,46.22 C91.4565242,43.0707556 96.5834758,43.0707556 99.77,46.22 C101.279895,47.7001562 102.13069,49.7256102 102.13069,51.84 C102.13069,53.9543898 101.279895,55.9798438 99.77,57.46 L99.77,57.45 Z M98,51.81 C98,49.33 96.34,47.35 94,47.35 C91.66,47.35 90,49.35 90,51.81 C90,54.27 91.56,56.27 94,56.27 C96.44,56.27 98,54.3 98,51.81 Z" id="Shape" fill="#FFFFFF"></path>
            <path d="M103.69,44.17 L108.27,44.17 C110.38,44.17 112,44.17 113.27,45.17 C114.421175,46.0606595 115.066625,47.4560265 115,48.91 C115.203804,51.0314201 113.708534,52.9400892 111.6,53.25 L115.74,59.36 L111,59.36 L107.5,53.36 L107.5,59.36 L103.62,59.36 L103.62,44.17 L103.69,44.17 Z M108.34,51.4 C110.09,51.4 110.92,50.83 110.92,49.49 C110.92,47.9 110.12,47.39 108.4,47.39 L107.57,47.39 L107.57,51.39 L108.34,51.4 Z" id="Shape" fill="#FFFFFF"></path>
            <path d="M117.22,59.39 L117.22,44.17 L121.84,44.17 C123.75,44.17 125.28,44.17 126.46,44.97 C127.884299,45.9640503 128.690685,47.6260375 128.59,49.36 C128.749368,51.081492 127.94051,52.7492804 126.49,53.69 C125.363302,54.2388538 124.108393,54.4704761 122.86,54.36 L121.11,54.36 L121.11,59.36 L117.22,59.39 Z M121.9,51 C123.69,51 124.58,50.69 124.58,49.22 C124.58,47.75 123.58,47.44 121.94,47.44 L121.11,47.44 L121.11,51 L121.9,51 Z" id="Shape" fill="#FFFFFF"></path>
            <path d="M134.58,56.56 C135.73,56.56 136.46,55.89 136.46,55 C136.46,53.79 135.63,53.44 133.91,53 C131.17,52.27 129.83,51.18 129.83,48.8 C129.83,45.96 131.9,43.86 135.09,43.86 C136.703169,43.8305417 138.284645,44.3098827 139.61,45.23 L138.31,48.23 C137.504852,47.493675 136.469474,47.0590283 135.38,47 C134.38,47 133.69,47.54 133.69,48.28 C133.69,49.36 134.74,49.58 136.11,49.96 C138.82,50.7 140.31,51.68 140.31,54.49 C140.31,57.67 138.05,59.84 134.48,59.84 C132.445518,59.8787022 130.486265,59.0710988 129.07,57.61 L131,54.49 C131.851731,55.6498529 133.149878,56.4004575 134.58,56.56 Z" id="Shape" fill="#FFFFFF"></path>
            <path d="M78.37,56.27 C75.98,56.27 74.45,54.62 74.37,51.81 C74.29,49 75.99,47.35 78.37,47.35 C79.6853603,47.3328896 80.9155183,47.9990675 81.62,49.11 L85.22,47.39 C83.197325,44.4597477 79.5196972,43.1624912 76.1061829,44.1751671 C72.6926686,45.187843 70.317463,48.2807735 70.22,51.84 C70.3133426,55.4010279 72.6870941,58.497775 76.1016076,59.5130237 C79.5161212,60.5282724 83.196203,59.2315318 85.22,56.3 L81.62,54.58 C80.8937536,55.6584672 79.6699648,56.2948374 78.37,56.27 Z" id="Shape" fill="#FFFFFF"></path>
            <path d="M83.21,40.54 L83.21,30.54 C83.0345363,31.5098608 82.8007791,32.4682649 82.51,33.41 L80.44,40.54 L77.67,40.54 L75.6,33.44 C75.3054069,32.499322 75.0715914,31.5406785 74.9,30.57 L74.9,40.57 L71,40.57 L71,25.32 L76.26,25.32 L78.55,33.18 C78.7635319,33.8546416 78.9141742,34.5475961 79,35.25 C79.0758971,34.543161 79.2370691,33.8481066 79.48,33.18 L81.8,25.35 L87.1,25.35 L87.1,40.57 L83.21,40.57 L83.21,40.54 Z" id="Shape" fill="#FFFFFF"></path>
            <polygon id="Shape" fill="#FFFFFF" points="89.45 25.32 98.78 25.32 98.78 28.66 93.5 28.66 93.5 31.3 98.5 31.3 98.5 34.55 93.5 34.55 93.5 37.13 98.79 37.13 98.79 40.54 89.48 40.54 89.48 25.32"></polygon>
            <path d="M100.89,25.32 L105.47,25.32 C107.57,25.32 109.2,25.32 110.47,26.32 C111.604314,27.21174 112.234575,28.59906 112.16,30.04 C112.357699,32.161094 110.858337,34.0649761 108.75,34.37 L112.89,40.49 L108.21,40.49 L104.71,34.49 L104.71,40.49 L100.82,40.49 L100.82,25.32 L100.89,25.32 Z M105.57,32.55 C107.32,32.55 108.15,31.97 108.15,30.63 C108.15,29.04 107.35,28.53 105.63,28.53 L104.8,28.53 L104.8,32.53 L105.57,32.55 Z" id="Shape" fill="#FFFFFF"></path>
            <path d="M121.55,37.39 C119.17,37.39 117.64,35.73 117.55,32.93 C117.46,30.13 119.18,28.47 121.55,28.47 C122.863868,28.4487826 124.094483,29.1114213 124.8,30.22 L128.4,28.5 C126.369312,25.5816448 122.695795,24.2948537 119.287899,25.3081347 C115.880003,26.3214158 113.506314,29.4062428 113.4,32.96 C113.506314,36.5137572 115.880003,39.5985842 119.287899,40.6118653 C122.695795,41.6251463 126.369312,40.3383552 128.4,37.42 L124.8,35.7 C124.061499,36.7646455 122.845688,37.3968671 121.55,37.39 Z" id="Shape" fill="#FFFFFF"></path>
            <polygon id="Shape" fill="#FFFFFF" points="129.32 40.83 134 40.83 143.17 25.28 138.45 25.28 135.72 29.9 132.44 25.28 127.88 25.28 133.61 33.5"></polygon>
        </g>
    </g>
</svg>