<?xml version="1.0" encoding="UTF-8"?>
<svg width="174px" height="37px" viewBox="0 0 174 37" version="1.1" xmlns="http://www.w3.org/2000/svg" xmlns:xlink="http://www.w3.org/1999/xlink">
    <!-- Generator: Sketch 51.2 (57519) - http://www.bohemiancoding.com/sketch -->
    <title>tola_activity_gray</title>
    <desc>Created with Sketch.</desc>
    <defs></defs>
    <g id="Page-1" stroke="none" stroke-width="1" fill="none" fill-rule="evenodd">
        <g id="tola_activity_gray" fill="#4E525A" fill-rule="nonzero">
            <polygon id="Shape" points="11.33 7.26 11.33 27.67 5.48 27.67 5.48 7.26 0 7.26 0 2.32 16.84 2.32 16.84 7.26"></polygon>
            <path d="M32.8,25.5 C30.7842812,27.3487267 28.1235583,28.3325838 25.39,28.24 C22.663633,28.3251635 20.011846,27.3419569 18,25.5 C14.6157085,21.9778777 14.6157085,16.4121223 18,12.89 C20.0168534,11.0431323 22.6767895,10.0595662 25.41,10.15 C28.1435583,10.0574162 30.8042812,11.0412733 32.82,12.89 C36.2198492,16.4058448 36.2198492,21.9841552 32.82,25.5 L32.8,25.5 Z M22.31,16 C21.4724747,16.8462523 21.0203662,18.0000333 21.06,19.19 C21.0199704,20.382991 21.4719331,21.5400155 22.31,22.39 C23.1407656,23.2030343 24.2682895,23.6403112 25.43,23.6 C26.5518648,23.6156344 27.6329171,23.1796099 28.43,22.39 C29.2731823,21.5433422 29.7260455,20.3840124 29.68,19.19 C29.7350205,18.0051136 29.2969983,16.8503276 28.47,16 C26.7345298,14.3842289 24.0454702,14.3842289 22.31,16 Z" id="Shape"></path>
            <polygon id="Shape" points="43.82 0 43.82 27.7 38.35 27.7 38.35 0"></polygon>
            <path d="M60.65,10.72 L66.12,10.72 L66.12,27.72 L60.65,27.72 L60.65,25.62 C59.5688298,27.3214237 57.6643161,28.3193889 55.65,28.24 C53.251854,28.3736828 50.9205409,27.4228008 49.3,25.65 C47.6787517,23.9413079 46.7919751,21.6651282 46.83,19.31 C46.7747886,16.7750271 47.7153944,14.3193997 49.45,12.47 C51.0236423,10.939439 53.1452726,10.1037544 55.34,10.15 C57.4104712,10.054223 59.3970261,10.9765521 60.66,12.62 L60.65,10.72 Z M53.65,16.08 C52.831494,16.8937419 52.3800933,18.0059933 52.4,19.16 C52.384754,20.2685702 52.7923962,21.3413127 53.54,22.16 C54.3942981,23.0192149 55.5583885,23.4985462 56.77,23.49 C57.8378121,23.4847754 58.8610196,23.0611316 59.62,22.31 C61.3807668,20.5942302 61.4342582,17.7814755 59.74,16 C58.9170278,15.2545175 57.8503171,14.8349446 56.74,14.82 C55.599901,14.8213919 54.5067983,15.2744542 53.7,16.08 L53.65,16.08 Z" id="Shape"></path>
            <path d="M85.5,20.52 L74.71,20.52 L71.71,27.67 L68.56,27.67 L80.22,1.11 L91.58,27.67 L88.47,27.67 L85.5,20.52 Z M84.4,17.86 L80.15,7.72 L75.82,17.86 L84.4,17.86 Z" id="Shape"></path>
            <path d="M105.3,16.31 C104.085537,14.8349593 102.270622,13.9862843 100.36,14 C98.8163622,13.9705659 97.331677,14.5924724 96.2698554,15.7132841 C95.2080338,16.8340958 94.6672299,18.3502056 94.78,19.89 C94.6763803,21.4186093 95.217416,22.9207935 96.2719117,24.0322889 C97.3264074,25.1437844 98.7980566,25.7630788 100.33,25.74 C102.307149,25.7044454 104.168608,24.8011438 105.42,23.27 L105.42,26.54 C103.96882,27.600715 102.217508,28.1716426 100.42,28.17 C98.180987,28.2680928 96.0020203,27.4306688 94.4049998,25.8583054 C92.8079793,24.2859419 91.936755,22.1202682 92,19.88 C91.937762,17.6320208 92.8082934,15.4584518 94.4050796,13.8749248 C96.0018659,12.2913978 98.1826179,11.4390202 100.43,11.52 C102.167799,11.4944852 103.870251,12.0118629 105.3,13 L105.3,16.31 Z" id="Shape"></path>
            <polygon id="Shape" points="112.41 14.41 112.41 27.67 109.67 27.67 109.67 14.41 108 14.41 108 11.9 109.67 11.9 109.67 6.2 112.41 6.2 112.41 11.9 115.15 11.9 115.15 14.41"></polygon>
            <path d="M119.1,4 C119.885565,4.00001044 120.593583,4.47376557 120.893263,5.19992233 C121.192943,5.9260791 121.025124,6.76128643 120.468212,7.31532723 C119.911301,7.86936804 119.075237,8.03286877 118.350639,7.72944028 C117.626041,7.42601179 117.155951,6.71555408 117.16,5.93 C117.170913,4.86474833 118.034706,4.00540722 119.1,4 Z M120.47,11.9 L120.47,27.67 L117.73,27.67 L117.73,11.9 L120.47,11.9 Z" id="Shape"></path>
            <polygon id="Shape" points="126.39 11.9 131.1 22.54 135.82 11.9 138.82 11.9 131.1 28.69 123.35 11.9"></polygon>
            <path d="M143.11,4 C143.896462,3.99595641 144.607549,4.46713367 144.910386,5.19296338 C145.213223,5.9187931 145.047882,6.75564149 144.491762,7.31176151 C143.935641,7.86788154 143.098793,8.03322311 142.372963,7.73038621 C141.647134,7.42754932 141.175956,6.71646209 141.18,5.93 C141.185469,4.86636387 142.046364,4.00546867 143.11,4 Z M144.48,11.9 L144.48,27.67 L141.75,27.67 L141.75,11.9 L144.48,11.9 Z" id="Shape"></path>
            <polygon id="Shape" points="152.46 14.41 152.46 27.67 149.73 27.67 149.73 14.41 148.05 14.41 148.05 11.9 149.73 11.9 149.73 6.2 152.46 6.2 152.46 11.9 155.2 11.9 155.2 14.41"></polygon>
            <polygon id="Shape" points="163.9 26.18 156.64 11.9 159.76 11.9 165.34 23.18 170.47 11.9 173.47 11.9 161.92 36.41 158.92 36.41"></polygon>
        </g>
    </g>
</svg>