<?xml version="1.0" encoding="UTF-8"?>
<svg width="174px" height="37px" viewBox="0 0 174 37" version="1.1" xmlns="http://www.w3.org/2000/svg" xmlns:xlink="http://www.w3.org/1999/xlink">
    <!-- Generator: Sketch 51.2 (57519) - http://www.bohemiancoding.com/sketch -->
    <title>tola_activity_white</title>
    <desc>Created with Sketch.</desc>
    <defs></defs>
    <g id="Page-1" stroke="none" stroke-width="1" fill="none" fill-rule="evenodd">
        <g id="tola_activity_white" fill="#FFFFFF" fill-rule="nonzero">
            <polygon id="Shape" points="11.3 7.3 11.3 27.7 5.5 27.7 5.5 7.3 0 7.3 0 2.3 16.8 2.3 16.8 7.2 11.3 7.2"></polygon>
            <path d="M32.8,25.5 C30.8,27.3 28.1,28.3 25.4,28.2 C22.7,28.3 20,27.3 18,25.5 C14.6,22 14.6,16.4 18,12.9 C20,11.1 22.7,10.1 25.4,10.2 C28.1,10.1 30.8,11.1 32.8,12.9 C36.2,16.4 36.2,22 32.8,25.5 Z M22.3,16 C21.5,16.8 21,18 21.1,19.2 C21.1,20.4 21.5,21.6 22.3,22.4 C23.1,23.2 24.3,23.7 25.4,23.6 C26.5,23.6 27.6,23.2 28.4,22.4 C29.2,21.6 29.7,20.4 29.6,19.2 C29.7,18 29.2,16.9 28.4,16 C26.7,14.4 24,14.4 22.3,16 Z" id="Shape"></path>
            <polygon id="Shape" points="43.8 0 43.8 27.7 38.3 27.7 38.3 0"></polygon>
            <path d="M60.7,10.7 L66.2,10.7 L66.2,27.7 L60.7,27.7 L60.7,25.6 C59.6,27.3 57.7,28.3 55.7,28.2 C53.3,28.3 51,27.4 49.4,25.6 C47.8,23.9 46.9,21.6 46.9,19.3 C46.8,16.8 47.8,14.3 49.5,12.5 C51.1,11 53.2,10.1 55.4,10.2 C57.5,10.1 59.5,11 60.7,12.7 L60.7,10.7 Z M53.7,16.1 C52.9,16.9 52.4,18 52.5,19.2 C52.5,20.3 52.9,21.4 53.6,22.2 C54.5,23.1 55.6,23.5 56.8,23.5 C57.9,23.5 58.9,23.1 59.6,22.3 C61.4,20.6 61.4,17.8 59.7,16 C58.9,15.3 57.8,14.8 56.7,14.8 C55.6,14.8 54.5,15.3 53.7,16.1 Z" id="Shape"></path>
            <path d="M85.5,20.5 L74.7,20.5 L71.7,27.6 L68.5,27.6 L80.2,1.1 L91.6,27.7 L88.5,27.7 L85.5,20.5 Z M84.4,17.9 L80.2,7.8 L75.9,17.9 L84.4,17.9 Z" id="Shape"></path>
            <path d="M105.3,16.3 C104.1,14.8 102.3,14 100.4,14 C97.4,13.9 94.9,16.4 94.8,19.4 C94.8,19.6 94.8,19.7 94.8,19.9 C94.6,22.9 96.9,25.5 99.9,25.7 C100.1,25.7 100.2,25.7 100.4,25.7 C102.4,25.7 104.2,24.8 105.5,23.2 L105.5,26.5 C104,27.6 102.3,28.1 100.5,28.1 C96,28.3 92.3,24.8 92.1,20.4 C92.1,20.2 92.1,20 92.1,19.8 C92,15.3 95.5,11.6 100,11.4 C100.2,11.4 100.3,11.4 100.5,11.4 C102.2,11.4 103.9,11.9 105.4,12.9 L105.4,16.3 L105.3,16.3 Z" id="Shape"></path>
            <polygon id="Shape" points="112.4 14.4 112.4 27.7 109.7 27.7 109.7 14.4 108 14.4 108 11.9 109.7 11.9 109.7 6.2 112.4 6.2 112.4 11.9 115.1 11.9 115.1 14.4"></polygon>
            <path d="M119.1,4 C120.2,4 121,4.9 121,5.9 C121,6.9 120.1,7.8 119.1,7.8 C118,7.8 117.2,6.9 117.2,5.9 C117.2,5.9 117.2,5.9 117.2,5.9 C117.2,4.9 118,4 119.1,4 Z M120.5,11.9 L120.5,27.7 L117.8,27.7 L117.8,11.9 L120.5,11.9 Z" id="Shape"></path>
            <polygon id="Shape" points="126.4 11.9 131.1 22.5 135.8 11.9 138.8 11.9 131.1 28.7 123.3 11.9"></polygon>
            <path d="M143.1,4 C144.2,4 145,4.9 145,5.9 C145,7 144.1,7.8 143.1,7.8 C142,7.8 141.2,6.9 141.2,5.9 C141.2,5.9 141.2,5.9 141.2,5.9 C141.2,4.9 142,4 143.1,4 Z M144.5,11.9 L144.5,27.7 L141.8,27.7 L141.8,11.9 L144.5,11.9 Z" id="Shape"></path>
            <polygon id="Shape" points="152.5 14.4 152.5 27.7 149.8 27.7 149.8 14.4 148.1 14.4 148.1 11.9 149.8 11.9 149.8 6.2 152.5 6.2 152.5 11.9 155.2 11.9 155.2 14.4"></polygon>
            <polygon id="Shape" points="163.9 26.2 156.6 11.9 159.7 11.9 165.3 23.2 170.4 11.9 173.4 11.9 161.8 36.4 158.8 36.4"></polygon>
        </g>
    </g>
</svg>